<?xml version="1.0" encoding="utf-8"?>
<!-- Generator: Adobe Illustrator 26.3.1, SVG Export Plug-In . SVG Version: 6.00 Build 0)  -->
<svg version="1.1" id="レイヤー_1" xmlns="http://www.w3.org/2000/svg" xmlns:xlink="http://www.w3.org/1999/xlink" x="0px"
	 y="0px" viewBox="0 0 151.96 39.49" style="enable-background:new 0 0 151.96 39.49;" xml:space="preserve">
<style type="text/css">
	.st0{enable-background:new    ;}
	.st1{fill:#32307A;}
</style>
<g class="st0">
	<path class="st1" d="M0,25.96c7.26,0,9.79-1.87,13.86-12.1c3.52-8.85,8.3-12.87,17.38-12.87h1.87v13.47h-0.05
		c-4.29,0-5.83,3.9-8.08,10.12c-3.74,10.28-10.61,14.9-21.39,14.9H0.02V25.96H0z"/>
	<path class="st1" d="M60.17,27.83v11.66H46.42V1h13.75C64.73,1,77,1.55,77,14.58C76.99,23.21,71.5,27.5,60.17,27.83z"/>
	<path class="st1" d="M89.76,0.99h13.75v38.49H89.76V0.99z"/>
	<path class="st1" d="M151.96,0.99v38.49h-33.6V0l19.85,19.58V0.99H151.96z"/>
</g>
</svg>
